<svg xmlns="http://www.w3.org/2000/svg" viewBox="0 0 398 374">
<path d="M 116 283 L 115 284 L 111 284 L 110 285 L 109 285 L 108 286 L 107 286 L 105 288 L 104 288 L 98 294 L 98 295 L 97 296 L 97 297 L 96 298 L 96 299 L 95 300 L 95 303 L 94 304 L 94 315 L 95 316 L 95 319 L 96 320 L 96 321 L 97 322 L 97 323 L 98 324 L 98 325 L 99 325 L 100 326 L 100 327 L 103 330 L 104 330 L 106 332 L 107 332 L 109 334 L 111 334 L 112 335 L 114 335 L 115 336 L 125 336 L 126 335 L 129 335 L 130 334 L 131 334 L 132 333 L 133 333 L 134 332 L 135 332 L 143 324 L 143 323 L 144 322 L 144 321 L 145 320 L 145 318 L 146 317 L 146 314 L 147 313 L 147 305 L 146 304 L 146 302 L 145 301 L 145 299 L 144 298 L 144 296 L 141 293 L 141 292 L 138 289 L 137 289 L 134 286 L 133 286 L 132 285 L 130 285 L 129 284 L 126 284 L 125 283 Z" fill="black"/>
<path d="M 352 146 L 351 147 L 349 147 L 348 148 L 346 148 L 345 149 L 344 149 L 341 152 L 340 152 L 340 153 L 339 154 L 338 154 L 338 155 L 335 158 L 335 159 L 334 160 L 334 161 L 333 162 L 333 163 L 332 164 L 332 166 L 331 167 L 331 176 L 332 177 L 332 180 L 333 181 L 333 182 L 334 183 L 334 184 L 335 185 L 335 186 L 337 188 L 337 189 L 340 192 L 341 192 L 344 195 L 345 195 L 346 196 L 347 196 L 348 197 L 351 197 L 352 198 L 363 198 L 364 197 L 367 197 L 368 196 L 369 196 L 370 195 L 371 195 L 374 192 L 375 192 L 378 189 L 378 188 L 380 186 L 380 185 L 381 184 L 381 183 L 382 182 L 382 180 L 383 179 L 383 176 L 384 175 L 384 169 L 383 168 L 383 165 L 382 164 L 382 162 L 381 161 L 381 160 L 380 159 L 380 158 L 378 156 L 378 155 L 375 152 L 374 152 L 371 149 L 370 149 L 369 148 L 367 148 L 366 147 L 364 147 L 363 146 Z" fill="black"/>
<path d="M 117 139 L 116 140 L 114 140 L 113 141 L 111 141 L 110 142 L 109 142 L 105 146 L 104 146 L 104 147 L 101 150 L 101 151 L 100 152 L 100 153 L 99 154 L 99 156 L 98 157 L 98 159 L 97 160 L 97 167 L 98 168 L 98 173 L 99 174 L 99 178 L 100 179 L 100 182 L 101 183 L 101 186 L 102 187 L 102 191 L 103 192 L 103 195 L 104 196 L 104 198 L 105 199 L 105 202 L 106 203 L 106 205 L 107 206 L 107 208 L 108 209 L 108 211 L 109 212 L 109 214 L 110 215 L 110 217 L 111 218 L 111 219 L 112 220 L 112 221 L 113 222 L 113 224 L 114 225 L 114 227 L 115 228 L 115 229 L 116 230 L 116 231 L 117 232 L 117 233 L 118 234 L 118 235 L 119 236 L 119 238 L 120 239 L 120 240 L 121 241 L 121 242 L 122 243 L 122 244 L 124 246 L 124 247 L 125 248 L 125 249 L 126 250 L 126 251 L 127 252 L 127 253 L 128 254 L 128 255 L 130 257 L 130 258 L 131 259 L 131 260 L 133 262 L 133 263 L 135 265 L 135 266 L 137 268 L 137 269 L 139 271 L 139 272 L 141 274 L 141 275 L 144 278 L 144 279 L 147 282 L 147 283 L 151 287 L 151 288 L 155 292 L 155 293 L 166 304 L 166 305 L 170 309 L 171 309 L 181 319 L 182 319 L 186 323 L 187 323 L 191 327 L 192 327 L 195 330 L 196 330 L 198 332 L 199 332 L 202 335 L 203 335 L 205 337 L 206 337 L 208 339 L 209 339 L 211 341 L 212 341 L 214 343 L 215 343 L 216 344 L 217 344 L 219 346 L 220 346 L 221 347 L 222 347 L 224 349 L 226 349 L 227 350 L 228 350 L 230 352 L 231 352 L 232 353 L 233 353 L 234 354 L 235 354 L 236 355 L 237 355 L 238 356 L 240 356 L 242 358 L 244 358 L 245 359 L 246 359 L 247 360 L 249 360 L 250 361 L 251 361 L 252 362 L 254 362 L 255 363 L 257 363 L 258 364 L 267 364 L 268 363 L 271 363 L 272 362 L 273 362 L 274 361 L 275 361 L 276 360 L 277 360 L 280 357 L 281 357 L 281 356 L 285 352 L 285 350 L 287 348 L 287 346 L 288 345 L 288 340 L 289 339 L 289 338 L 288 337 L 288 332 L 287 331 L 287 330 L 286 329 L 286 327 L 284 325 L 284 324 L 282 322 L 282 321 L 280 319 L 279 319 L 277 317 L 276 317 L 275 316 L 274 316 L 273 315 L 272 315 L 271 314 L 269 314 L 268 313 L 267 313 L 266 312 L 265 312 L 264 311 L 262 311 L 261 310 L 260 310 L 258 308 L 256 308 L 255 307 L 254 307 L 253 306 L 252 306 L 251 305 L 250 305 L 248 303 L 247 303 L 246 302 L 245 302 L 243 300 L 242 300 L 241 299 L 240 299 L 238 297 L 237 297 L 235 295 L 234 295 L 232 293 L 231 293 L 228 290 L 227 290 L 224 287 L 223 287 L 220 284 L 219 284 L 213 278 L 212 278 L 196 262 L 196 261 L 191 256 L 191 255 L 187 251 L 187 250 L 184 247 L 184 246 L 181 243 L 181 242 L 179 240 L 179 239 L 177 237 L 177 236 L 176 235 L 176 234 L 174 232 L 174 231 L 172 229 L 172 228 L 171 227 L 171 226 L 170 225 L 170 224 L 169 223 L 169 222 L 168 221 L 168 220 L 167 219 L 167 218 L 166 217 L 166 216 L 165 215 L 165 214 L 164 213 L 164 212 L 163 211 L 163 210 L 162 209 L 162 208 L 161 207 L 161 205 L 160 204 L 160 203 L 159 202 L 159 200 L 158 199 L 158 198 L 157 197 L 157 195 L 156 194 L 156 192 L 155 191 L 155 189 L 154 188 L 154 185 L 153 184 L 153 182 L 152 181 L 152 178 L 151 177 L 151 175 L 150 174 L 150 169 L 149 168 L 149 163 L 148 162 L 148 158 L 147 157 L 147 155 L 146 154 L 146 153 L 145 152 L 145 151 L 144 150 L 144 149 L 138 143 L 137 143 L 136 142 L 135 142 L 134 141 L 133 141 L 132 140 L 131 140 L 130 139 Z" fill="black"/>
<path d="M 163 66 L 162 67 L 154 67 L 153 68 L 148 68 L 147 69 L 141 69 L 140 70 L 133 70 L 132 71 L 129 71 L 128 72 L 125 72 L 124 73 L 122 73 L 121 74 L 118 74 L 117 75 L 113 75 L 112 76 L 110 76 L 109 77 L 107 77 L 106 78 L 104 78 L 103 79 L 101 79 L 100 80 L 98 80 L 97 81 L 95 81 L 94 82 L 92 82 L 91 83 L 90 83 L 89 84 L 88 84 L 87 85 L 85 85 L 84 86 L 83 86 L 82 87 L 81 87 L 80 88 L 78 88 L 77 89 L 76 89 L 75 90 L 74 90 L 73 91 L 72 91 L 71 92 L 70 92 L 69 93 L 68 93 L 67 94 L 66 94 L 65 95 L 64 95 L 63 96 L 62 96 L 61 97 L 60 97 L 58 99 L 57 99 L 56 100 L 55 100 L 53 102 L 52 102 L 51 103 L 50 103 L 49 104 L 48 104 L 45 107 L 44 107 L 41 110 L 39 110 L 36 113 L 35 113 L 32 116 L 31 116 L 28 119 L 27 119 L 24 122 L 23 122 L 17 128 L 16 128 L 9 135 L 9 136 L 8 137 L 8 138 L 6 140 L 6 142 L 5 143 L 5 146 L 4 147 L 4 155 L 5 156 L 5 159 L 6 160 L 6 161 L 7 162 L 7 163 L 8 164 L 8 165 L 11 168 L 11 169 L 12 169 L 16 173 L 17 173 L 18 174 L 20 174 L 21 175 L 25 175 L 26 176 L 35 176 L 36 175 L 39 175 L 40 174 L 41 174 L 42 173 L 43 173 L 45 171 L 46 171 L 53 164 L 54 164 L 59 159 L 60 159 L 63 156 L 64 156 L 66 154 L 67 154 L 69 152 L 70 152 L 72 150 L 73 150 L 75 148 L 76 148 L 78 146 L 79 146 L 81 144 L 82 144 L 83 143 L 84 143 L 85 142 L 86 142 L 87 141 L 88 141 L 90 139 L 91 139 L 92 138 L 93 138 L 94 137 L 95 137 L 96 136 L 97 136 L 98 135 L 100 135 L 101 134 L 102 134 L 103 133 L 104 133 L 105 132 L 107 132 L 108 131 L 109 131 L 110 130 L 112 130 L 113 129 L 115 129 L 116 128 L 118 128 L 119 127 L 121 127 L 122 126 L 123 126 L 124 125 L 127 125 L 128 124 L 129 124 L 130 123 L 131 124 L 132 123 L 135 123 L 136 122 L 139 122 L 140 121 L 144 121 L 145 120 L 149 120 L 150 119 L 154 119 L 155 118 L 161 118 L 162 117 L 202 117 L 203 118 L 210 118 L 211 119 L 216 119 L 217 120 L 220 120 L 221 121 L 225 121 L 226 122 L 229 122 L 230 123 L 234 123 L 235 124 L 237 124 L 238 125 L 241 125 L 242 126 L 246 126 L 247 127 L 249 127 L 250 126 L 255 126 L 256 125 L 257 125 L 258 124 L 260 124 L 261 123 L 262 123 L 270 115 L 270 114 L 271 113 L 271 112 L 272 111 L 272 108 L 273 107 L 273 95 L 272 94 L 272 91 L 271 90 L 271 89 L 269 87 L 269 86 L 263 80 L 262 80 L 260 78 L 259 78 L 258 77 L 256 77 L 255 76 L 252 76 L 251 75 L 249 75 L 248 74 L 245 74 L 244 73 L 241 73 L 240 72 L 237 72 L 236 71 L 232 71 L 231 70 L 225 70 L 224 69 L 218 69 L 217 68 L 212 68 L 211 67 L 202 67 L 201 66 Z" fill="black"/>
<path d="M 306 9 L 305 10 L 304 10 L 303 11 L 301 11 L 300 12 L 299 12 L 297 14 L 296 14 L 290 20 L 290 21 L 289 22 L 289 23 L 288 24 L 288 25 L 287 26 L 287 29 L 286 30 L 286 40 L 287 41 L 287 47 L 288 48 L 288 59 L 289 60 L 289 76 L 288 77 L 288 88 L 287 89 L 287 95 L 286 96 L 286 102 L 285 103 L 285 107 L 284 108 L 284 113 L 283 114 L 283 116 L 282 117 L 282 120 L 281 121 L 281 123 L 280 124 L 280 127 L 279 128 L 279 130 L 278 131 L 278 133 L 277 134 L 277 136 L 276 137 L 276 139 L 275 140 L 275 141 L 274 142 L 274 144 L 273 145 L 273 146 L 272 147 L 272 148 L 271 149 L 271 151 L 270 152 L 270 153 L 268 155 L 268 157 L 267 158 L 267 159 L 266 160 L 266 161 L 265 162 L 265 163 L 263 165 L 263 166 L 262 167 L 262 168 L 261 169 L 261 170 L 259 172 L 259 173 L 258 174 L 258 175 L 256 177 L 256 178 L 254 180 L 254 181 L 251 184 L 251 185 L 249 187 L 249 188 L 245 192 L 245 193 L 242 196 L 242 197 L 233 206 L 233 207 L 227 213 L 226 213 L 218 221 L 217 221 L 209 229 L 209 230 L 208 231 L 208 232 L 207 233 L 207 235 L 206 236 L 206 239 L 205 240 L 205 246 L 206 247 L 206 250 L 207 251 L 207 253 L 208 254 L 208 255 L 210 257 L 210 258 L 216 264 L 217 264 L 218 265 L 219 265 L 220 266 L 222 266 L 223 267 L 225 267 L 226 268 L 235 268 L 236 267 L 238 267 L 239 266 L 241 266 L 242 265 L 243 265 L 245 263 L 246 263 L 248 261 L 249 261 L 249 260 L 250 259 L 251 259 L 256 254 L 257 254 L 257 253 L 273 237 L 274 237 L 274 236 L 281 229 L 281 228 L 284 225 L 284 224 L 287 221 L 287 220 L 290 217 L 290 216 L 293 213 L 293 212 L 295 210 L 295 209 L 298 206 L 298 205 L 299 204 L 299 203 L 301 201 L 301 200 L 302 199 L 302 198 L 304 196 L 304 195 L 305 194 L 305 193 L 307 191 L 307 190 L 308 189 L 308 188 L 309 187 L 309 186 L 310 185 L 310 184 L 311 183 L 311 182 L 312 181 L 312 180 L 313 179 L 313 178 L 314 177 L 314 176 L 315 175 L 315 174 L 316 173 L 316 172 L 317 171 L 317 170 L 318 169 L 318 167 L 319 166 L 319 165 L 320 164 L 320 163 L 321 162 L 321 160 L 322 159 L 322 158 L 323 157 L 323 154 L 324 153 L 324 152 L 325 151 L 325 149 L 326 148 L 326 146 L 327 145 L 327 142 L 328 141 L 328 140 L 329 139 L 329 136 L 330 135 L 330 132 L 331 131 L 331 128 L 332 127 L 332 125 L 333 124 L 333 120 L 334 119 L 334 114 L 335 113 L 335 108 L 336 107 L 336 102 L 337 101 L 337 95 L 338 94 L 338 85 L 339 84 L 339 52 L 338 51 L 338 42 L 337 41 L 337 35 L 336 34 L 336 30 L 335 29 L 335 25 L 334 24 L 334 23 L 333 22 L 333 21 L 329 17 L 329 16 L 328 16 L 327 15 L 327 14 L 326 14 L 325 13 L 324 13 L 323 12 L 322 12 L 321 11 L 319 11 L 318 10 L 316 10 L 315 9 Z" fill="black"/>
<path d="M 112 9 L 111 10 L 109 10 L 108 11 L 106 11 L 104 13 L 103 13 L 96 20 L 96 21 L 94 23 L 94 24 L 93 25 L 93 27 L 92 28 L 92 32 L 91 33 L 91 38 L 92 39 L 92 43 L 93 44 L 93 45 L 94 46 L 94 47 L 95 48 L 95 49 L 96 50 L 96 51 L 103 58 L 104 58 L 105 59 L 106 59 L 107 60 L 109 60 L 110 61 L 113 61 L 114 62 L 122 62 L 123 61 L 126 61 L 127 60 L 129 60 L 130 59 L 131 59 L 132 58 L 133 58 L 140 51 L 140 50 L 142 48 L 142 47 L 143 46 L 143 44 L 144 43 L 144 27 L 143 26 L 143 25 L 142 24 L 142 23 L 141 22 L 141 21 L 139 19 L 139 18 L 136 15 L 135 15 L 132 12 L 130 12 L 129 11 L 128 11 L 127 10 L 125 10 L 124 9 Z" fill="black"/>
</svg>